<?xml version="1.0" encoding="iso-8859-1"?>
<!-- Uploaded to: SVG Repo, www.svgrepo.com, Generator: SVG Repo Mixer Tools -->
<svg height="800px" width="800px" version="1.1" id="Layer_1" xmlns="http://www.w3.org/2000/svg" xmlns:xlink="http://www.w3.org/1999/xlink" 
	 viewBox="0 0 512 512" xml:space="preserve">
<circle style="fill:#F4B2B0;" cx="203.397" cy="266.521" r="84.164"/>
<g>
	<path style="fill:#B3404A;" d="M203.397,168.329c-54.143,0-98.192,44.049-98.192,98.192s44.049,98.192,98.192,98.192
		s98.192-44.049,98.192-98.192S257.54,168.329,203.397,168.329z M203.397,336.658c-38.674,0-70.137-31.463-70.137-70.137
		s31.463-70.137,70.137-70.137s70.137,31.463,70.137,70.137S242.071,336.658,203.397,336.658z"/>
	<path style="fill:#B3404A;" d="M473.19,98.192H343.671c-7.747,0-14.027,6.281-14.027,14.027v42.082
		c0,7.746,6.28,14.027,14.027,14.027c7.747,0,14.027-6.281,14.027-14.027v-28.055H473.19c5.931,0,10.755,4.824,10.755,10.755v68.744
		c0,4.776-3.208,9.029-7.801,10.341l-122.326,34.951c-6.084,1.738-10.251,7.335-10.173,13.661l0.011,0.743
		c0.006,0.359,0.013,0.718,0.013,1.079c0,77.348-62.927,140.274-140.274,140.274c-37.56,0-72.848-14.652-99.362-41.259
		c-26.512-26.604-41.041-61.945-40.912-99.513c0.268-77.074,63.947-139.776,141.95-139.776h68.462
		c7.747,0,14.027-6.281,14.027-14.027s-6.28-14.027-14.027-14.027h-68.462c-34.427,0-66.518,10.229-93.344,27.764
		c-3.592-27.498-27.157-48.806-55.619-48.806C25.171,77.151,0,102.321,0,133.26c0,30.251,24.07,54.975,54.063,56.058
		c-12.045,22.977-18.899,49.024-18.994,76.608c-0.156,45.08,17.28,87.487,49.096,119.414c31.816,31.926,74.16,49.51,119.233,49.51
		c89.921,0,163.602-70.868,168.11-159.689l112.345-32.099c16.573-4.736,28.147-20.08,28.147-37.316v-68.744
		C512,115.601,494.591,98.192,473.19,98.192z M28.055,133.26c0-15.469,12.585-28.055,28.055-28.055s28.055,12.585,28.055,28.055
		s-12.585,28.055-28.055,28.055S28.055,148.73,28.055,133.26z"/>
</g>
</svg>